<svg width="232" height="228" viewBox="0 0 232 228" fill="none" xmlns="http://www.w3.org/2000/svg">
<path d="M17.2313 47.36V52.48H12.0713V47.36H17.2313ZM31.3113 59.96C31.5779 59.96 31.7113 60.0933 31.7113 60.36V65.6C31.7113 65.8667 31.5779 66 31.3113 66H29.5913C28.3646 66 27.3513 65.7067 26.5513 65.12C25.5646 67.4933 24.0046 69.4 21.8713 70.84C19.7646 72.3067 17.3913 73.04 14.7513 73.04C12.4313 73.04 10.2846 72.4533 8.31125 71.28C6.33792 70.1333 4.76458 68.5733 3.59125 66.6C2.44458 64.6267 1.87125 62.48 1.87125 60.16V52.68H7.63125V59.84C7.63125 61.12 7.95125 62.3067 8.59125 63.4C9.23125 64.4933 10.0979 65.36 11.1913 66C12.2846 66.64 13.4713 66.96 14.7513 66.96C16.0579 66.96 17.2579 66.64 18.3513 66C19.4713 65.36 20.3513 64.4933 20.9913 63.4C21.6313 62.3067 21.9513 61.12 21.9513 59.84V51.08H27.7513V58.08C27.7513 58.6133 27.9246 59.0667 28.2713 59.44C28.6446 59.7867 29.0846 59.96 29.5913 59.96H31.3113ZM30.9203 60.36C30.9203 60.0933 31.0536 59.96 31.3203 59.96H33.9203C34.4536 59.96 34.8936 59.7867 35.2403 59.44C35.587 59.0667 35.7603 58.6133 35.7603 58.08V51.08H41.5203V58.08C41.5203 58.6133 41.6936 59.0667 42.0403 59.44C42.387 59.7867 42.827 59.96 43.3603 59.96H45.9603C46.227 59.96 46.3603 60.0933 46.3603 60.36V65.6C46.3603 65.8667 46.227 66 45.9603 66H43.3603C41.387 66 39.8136 65.3467 38.6403 64.04C37.4136 65.3467 35.8403 66 33.9203 66H31.3203C31.0536 66 30.9203 65.8667 30.9203 65.6V60.36ZM32.4403 69.44H37.5603V74.56H32.4403V69.44ZM39.6403 69.44H44.8003V74.56H39.6403V69.44ZM71.0488 59.96C71.3154 59.96 71.4488 60.0933 71.4488 60.36V65.6C71.4488 65.8667 71.3154 66 71.0488 66H69.3688C67.3688 66 65.7821 65.28 64.6088 63.84C63.8088 64.56 62.9021 65.12 61.8888 65.52C60.9021 65.8933 59.8621 66.08 58.7688 66.08C57.7021 66.08 56.7021 65.8933 55.7688 65.52C54.8354 65.1467 53.9954 64.6267 53.2488 63.96C52.1021 65.32 50.5554 66 48.6087 66H45.9688C45.7021 66 45.5687 65.8667 45.5687 65.6V60.36C45.5687 60.0933 45.7021 59.96 45.9688 59.96H48.6087C49.1154 59.96 49.5421 59.7867 49.8888 59.44C50.2621 59.0667 50.4488 58.6133 50.4488 58.08V54.72H47.9688V49H58.7688C60.3688 49 61.8354 49.36 63.1688 50.08C64.5021 50.8 65.5554 51.8 66.3288 53.08C67.1288 54.3333 67.5288 55.7467 67.5288 57.32V58.08C67.5288 58.6133 67.7021 59.0667 68.0488 59.44C68.3954 59.7867 68.8354 59.96 69.3688 59.96H71.0488ZM58.7688 60.04C59.5421 60.04 60.1821 59.7867 60.6888 59.28C61.1954 58.7467 61.4488 58.0933 61.4488 57.32C61.4488 56.5733 61.1954 55.96 60.6888 55.48C60.1821 54.9733 59.5421 54.72 58.7688 54.72H56.1288V57.32C56.1288 58.0933 56.3688 58.7467 56.8488 59.28C57.3554 59.7867 57.9954 60.04 58.7688 60.04ZM70.6469 60.36C70.6469 60.0933 70.7802 59.96 71.0469 59.96H73.6469C74.1802 59.96 74.6202 59.7867 74.9669 59.44C75.3135 59.0667 75.4869 58.6133 75.4869 58.08V51.08H81.2469V58.08C81.2469 58.6133 81.4202 59.0667 81.7669 59.44C82.1135 59.7867 82.5535 59.96 83.0869 59.96H85.6869C85.9535 59.96 86.0869 60.0933 86.0869 60.36V65.6C86.0869 65.8667 85.9535 66 85.6869 66H83.0869C81.1135 66 79.5402 65.3467 78.3669 64.04C77.1402 65.3467 75.5669 66 73.6469 66H71.0469C70.7802 66 70.6469 65.8667 70.6469 65.6V60.36ZM72.1669 69.44H77.2869V74.56H72.1669V69.44ZM79.3669 69.44H84.5269V74.56H79.3669V69.44ZM86.2953 41.24L93.3353 33.8L96.0953 36.6L89.0553 44.04L86.2953 41.24ZM85.6953 66C85.4286 66 85.2953 65.8667 85.2953 65.6V60.36C85.2953 60.0933 85.4286 59.96 85.6953 59.96H98.4153C99.1353 59.96 99.7486 59.72 100.255 59.24C100.762 58.76 101.015 58.12 101.015 57.32C101.015 56.36 100.562 55.6 99.6553 55.04L90.5753 49.08V44.72L98.5753 36.24L102.495 39.96L96.5753 46.16L103.215 50.52C104.335 51.24 105.202 52.2133 105.815 53.44C106.455 54.64 106.775 55.9733 106.775 57.44C106.775 58.9867 106.389 60.4133 105.615 61.72C104.869 63.0267 103.855 64.0667 102.575 64.84C101.295 65.6133 99.882 66 98.3353 66H85.6953Z" fill="white"/>
<path d="M15.5384 88.89V93.45C15.5384 94.47 15.2984 95.41 14.8184 96.27C14.3384 97.13 13.6784 97.81 12.8384 98.31C12.0184 98.81 11.0984 99.06 10.0784 99.06C8.67844 99.06 7.50844 98.59 6.56844 97.65V97.8V108H4.70844V97.83C4.70844 95.79 4.66844 94.08 4.58844 92.7C4.50844 91.32 4.31844 90.07 4.01844 88.95L5.66844 88.59C6.00844 89.47 6.26844 91.09 6.44844 93.45C6.44844 94.47 6.79844 95.34 7.49844 96.06C8.21844 96.76 9.07844 97.11 10.0784 97.11C11.0984 97.11 11.9584 96.76 12.6584 96.06C13.3584 95.34 13.7084 94.47 13.7084 93.45V88.89H15.5384ZM23.5018 108C22.5818 108 21.7318 107.78 20.9518 107.34C20.1918 106.88 19.5818 106.27 19.1218 105.51C18.6818 104.73 18.4618 103.88 18.4618 102.96C18.4618 102.06 18.6818 101.23 19.1218 100.47C19.5818 99.69 20.1918 99.08 20.9518 98.64C21.7318 98.18 22.5818 97.95 23.5018 97.95C24.4018 97.95 25.2318 98.18 25.9918 98.64C26.7718 99.08 27.3818 99.69 27.8218 100.47C28.2818 101.23 28.5118 102.06 28.5118 102.96C28.5118 103.88 28.2818 104.73 27.8218 105.51C27.3818 106.27 26.7718 106.88 25.9918 107.34C25.2318 107.78 24.4018 108 23.5018 108ZM23.5018 106.14C24.3618 106.14 25.1018 105.83 25.7218 105.21C26.3418 104.59 26.6518 103.84 26.6518 102.96C26.6518 102.1 26.3418 101.36 25.7218 100.74C25.1018 100.12 24.3618 99.81 23.5018 99.81C22.6218 99.81 21.8718 100.12 21.2518 100.74C20.6318 101.34 20.3218 102.08 20.3218 102.96C20.3218 103.84 20.6318 104.59 21.2518 105.21C21.8718 105.83 22.6218 106.14 23.5018 106.14ZM43.2533 88.89V93.45C43.2533 94.47 43.0133 95.41 42.5333 96.27C42.0533 97.13 41.3933 97.81 40.5533 98.31C39.7333 98.81 38.8133 99.06 37.7933 99.06C36.3933 99.06 35.2233 98.59 34.2833 97.65V97.8V108H32.4233V97.83C32.4233 95.79 32.3833 94.08 32.3033 92.7C32.2233 91.32 32.0333 90.07 31.7333 88.95L33.3833 88.59C33.7233 89.47 33.9833 91.09 34.1633 93.45C34.1633 94.47 34.5133 95.34 35.2133 96.06C35.9333 96.76 36.7933 97.11 37.7933 97.11C38.8133 97.11 39.6733 96.76 40.3733 96.06C41.0733 95.34 41.4233 94.47 41.4233 93.45V88.89H43.2533ZM57.6966 88.89V93.45C57.6966 94.47 57.4566 95.41 56.9766 96.27C56.4966 97.13 55.8366 97.81 54.9966 98.31C54.1766 98.81 53.2566 99.06 52.2366 99.06C50.8366 99.06 49.6666 98.59 48.7266 97.65V97.8V108H46.8666V97.83C46.8666 95.79 46.8266 94.08 46.7466 92.7C46.6666 91.32 46.4766 90.07 46.1766 88.95L47.8266 88.59C48.1666 89.47 48.4266 91.09 48.6066 93.45C48.6066 94.47 48.9566 95.34 49.6566 96.06C50.3766 96.76 51.2366 97.11 52.2366 97.11C53.2566 97.11 54.1166 96.76 54.8166 96.06C55.5166 95.34 55.8666 94.47 55.8666 93.45V88.89H57.6966Z" fill="white"/>
<g clip-path="url(#clip0_114_321)">
<path d="M226.559 0.0110706C227.44 0.0110706 228.324 -0.0138383 229.206 0.0110706C231.582 0.0857973 232.683 1.77684 231.551 3.88579C230.66 5.44785 229.634 6.92959 228.483 8.31404C221.634 16.9713 214.835 25.6755 207.847 34.2221C201.5 41.9715 195.025 49.6287 188.421 57.1936C185.225 60.8497 181.357 63.728 176.402 64.7991C170.545 66.0639 165.397 64.4449 160.64 61.1043C157.762 59.0839 155.866 56.2139 153.994 53.3715C147.859 44.0371 141.776 34.6649 135.745 25.2549C133.107 21.1338 130.659 16.8938 128.127 12.7035C127.984 12.4683 127.848 12.222 127.731 11.9757C126.144 8.74026 127.1 6.99387 130.689 6.73648C143.419 5.78625 156.154 4.8517 168.894 3.93284C180.147 3.10254 191.396 2.28885 202.638 1.52221C210.605 0.968682 218.578 0.531392 226.551 0.0387489L226.559 0.0110706Z" fill="white"/>
<path d="M213.087 139C210.856 138.66 208.19 138.311 205.558 137.829C199.98 136.811 194.436 135.731 188.878 134.658C182.186 133.366 175.493 132.06 168.8 130.739C160.969 129.192 153.141 127.624 145.316 126.034C144.127 125.825 142.959 125.514 141.825 125.104C138.997 123.997 138.01 121.746 139.195 118.954C140.762 115.262 142.433 111.608 144.109 107.958C146.878 101.922 149.541 95.8273 152.536 89.899C154.525 85.9219 156.755 82.0001 159.374 78.3966C164.318 71.5882 173.175 71.0402 179.093 77.0654C181.243 79.2574 183.095 81.7925 184.801 84.3526C188.747 90.2699 192.518 96.2978 196.361 102.281C202.622 112.04 208.881 121.793 215.137 131.538C215.706 132.434 216.214 133.367 216.657 134.331C217.889 137.016 216.526 139.039 213.087 139Z" fill="white"/>
</g>
<path d="M9.99725 188.888H7.72525L6.98925 172.824H10.7013L9.99725 188.888ZM8.87725 195.352C8.34392 195.352 7.86392 195.149 7.43725 194.744C7.03192 194.317 6.82925 193.827 6.82925 193.272C6.82925 192.717 7.02125 192.237 7.40525 191.832C7.81058 191.427 8.30125 191.224 8.87725 191.224C9.47458 191.224 9.96525 191.427 10.3493 191.832C10.7333 192.237 10.9253 192.717 10.9253 193.272C10.9253 193.848 10.7119 194.339 10.2853 194.744C9.87992 195.149 9.41058 195.352 8.87725 195.352ZM22.8888 181.848H26.1528V185.112H22.8888V181.848ZM24.5528 200.952C22.8248 200.952 21.2248 200.515 19.7528 199.64C18.2808 198.787 17.1074 197.624 16.2328 196.152C15.3794 194.68 14.9528 193.08 14.9528 191.352V185.368H18.2488V191.16C18.2488 192.312 18.5261 193.379 19.0808 194.36C19.6568 195.32 20.4248 196.077 21.3848 196.632C22.3661 197.208 23.4221 197.496 24.5528 197.496C25.7048 197.496 26.7608 197.208 27.7208 196.632C28.7021 196.077 29.4701 195.32 30.0248 194.36C30.6008 193.379 30.8888 192.312 30.8888 191.16V184.088H34.1848V191.352C34.1848 193.08 33.7474 194.68 32.8728 196.152C32.0194 197.624 30.8568 198.787 29.3848 199.64C27.9128 200.515 26.3021 200.952 24.5528 200.952ZM43.3333 195C42.3093 195 41.3706 194.755 40.5173 194.264C39.6639 193.752 38.9919 193.069 38.5013 192.216C38.0106 191.363 37.7653 190.424 37.7653 189.4V173.752H41.0613V189.208C41.0613 189.848 41.2853 190.392 41.7333 190.84C42.1813 191.288 42.7146 191.512 43.3333 191.512H44.9013C45.1146 191.512 45.2213 191.619 45.2213 191.832V194.68C45.2213 194.893 45.1146 195 44.9013 195H43.3333ZM55.3063 182.328C56.5009 182.328 57.5889 182.605 58.5703 183.16C59.5729 183.693 60.3623 184.44 60.9383 185.4C61.5356 186.36 61.8343 187.416 61.8343 188.568C61.8343 189.741 61.5356 190.829 60.9383 191.832C60.3623 192.813 59.5729 193.603 58.5703 194.2C57.5889 194.776 56.5009 195.064 55.3063 195.064C54.3889 195.064 53.5356 194.883 52.7463 194.52C51.9569 194.157 51.2743 193.656 50.6983 193.016C50.2716 193.635 49.7276 194.125 49.0663 194.488C48.4049 194.829 47.6476 195 46.7943 195H44.9062C44.6929 195 44.5862 194.893 44.5862 194.68V191.832C44.5862 191.619 44.6929 191.512 44.9062 191.512H46.7943C47.4129 191.512 47.9463 191.299 48.3943 190.872C48.8423 190.424 49.0663 189.88 49.0663 189.24V185.624H47.1463V182.328H55.3063ZM55.3063 191.576C56.1596 191.576 56.8743 191.288 57.4503 190.712C58.0476 190.136 58.3463 189.421 58.3463 188.568C58.3463 187.736 58.0476 187.043 57.4503 186.488C56.8743 185.912 56.1596 185.624 55.3063 185.624H52.3303V188.568C52.3303 189.421 52.6183 190.136 53.1943 190.712C53.7703 191.288 54.4743 191.576 55.3063 191.576ZM72.1673 191.512C72.3806 191.512 72.4873 191.619 72.4873 191.832V194.68C72.4873 194.893 72.3806 195 72.1673 195H70.7273C69.8526 195 69.0953 194.808 68.4553 194.424C68.4339 196.003 68.1779 197.304 67.6873 198.328C67.2179 199.373 66.4713 200.291 65.4473 201.08C64.4446 201.869 63.0046 202.712 61.1273 203.608L59.8792 200.856C61.4366 199.981 62.5459 199.288 63.2073 198.776C63.8899 198.285 64.3806 197.688 64.6793 196.984C64.9993 196.301 65.1593 195.363 65.1593 194.168V184.088H68.4553V189.24C68.4553 189.88 68.6686 190.424 69.0953 190.872C69.5433 191.299 70.0873 191.512 70.7273 191.512H72.1673ZM89.9163 191.512C90.1296 191.512 90.2362 191.619 90.2362 191.832V194.68C90.2362 194.893 90.1296 195 89.9163 195H88.3162C87.4843 195 86.7909 195.288 86.2363 195.864C85.6816 196.44 85.4043 197.155 85.4043 198.008V199.352H87.7403V202.616H79.9643C78.8763 202.616 77.8736 202.349 76.9563 201.816C76.0389 201.283 75.3029 200.557 74.7483 199.64C74.2149 198.723 73.9483 197.72 73.9483 196.632V195H72.1562C71.9429 195 71.8362 194.893 71.8362 194.68V191.832C71.8362 191.619 71.9429 191.512 72.1562 191.512H73.9483V188.6C73.9483 187.427 74.2149 186.339 74.7483 185.336C75.3029 184.333 76.0603 183.544 77.0203 182.968C77.9803 182.392 79.0469 182.104 80.2203 182.104C81.3936 182.104 82.4709 182.403 83.4523 183C84.4549 183.576 85.2443 184.365 85.8203 185.368C86.4176 186.349 86.7163 187.427 86.7163 188.6C86.7163 189.944 86.3216 191.181 85.5323 192.312C86.4283 191.779 87.4416 191.512 88.5723 191.512H89.9163ZM77.2123 191.512H80.2203C81.0523 191.512 81.7563 191.235 82.3323 190.68C82.9296 190.125 83.2283 189.432 83.2283 188.6C83.2283 187.747 82.9296 187.032 82.3323 186.456C81.7563 185.88 81.0523 185.592 80.2203 185.592C79.3669 185.592 78.6523 185.88 78.0763 186.456C77.5003 187.032 77.2123 187.747 77.2123 188.6V191.512ZM82.3963 199.352V198.008C82.3963 196.536 82.8016 195.224 83.6123 194.072C82.5456 194.691 81.4149 195 80.2203 195H77.2443V196.632C77.2443 197.379 77.5109 198.019 78.0443 198.552C78.5776 199.085 79.2176 199.352 79.9643 199.352H82.3963ZM93.3623 170.808H96.6263V174.072H93.3623V170.808ZM98.2903 170.808H101.554V174.072H98.2903V170.808ZM89.9062 195C89.6929 195 89.5862 194.893 89.5862 194.68V191.832C89.5862 191.619 89.6929 191.512 89.9062 191.512H97.5863C98.2263 191.512 98.7596 191.299 99.1863 190.872C99.6343 190.445 99.8583 189.901 99.8583 189.24V188.696H97.4583C96.3703 188.696 95.3676 188.451 94.4503 187.96C93.5543 187.448 92.8396 186.765 92.3063 185.912C91.7729 185.037 91.5063 184.067 91.5063 183C91.5063 181.912 91.7729 180.909 92.3063 179.992C92.8609 179.053 93.5863 178.317 94.4823 177.784C95.3996 177.251 96.3916 176.984 97.4583 176.984C98.5249 176.984 99.4849 177.251 100.338 177.784C101.213 178.317 101.896 179.043 102.386 179.96C102.898 180.877 103.154 181.891 103.154 183V189.432C103.154 190.435 102.909 191.363 102.418 192.216C101.928 193.069 101.256 193.752 100.402 194.264C99.5489 194.755 98.6103 195 97.5863 195H89.9062ZM100.05 182.872C100.05 182.125 99.7836 181.496 99.2503 180.984C98.7383 180.451 98.1089 180.184 97.3623 180.184C96.5943 180.184 95.9436 180.44 95.4103 180.952C94.8983 181.464 94.6423 182.104 94.6423 182.872C94.6423 183.661 94.8983 184.323 95.4103 184.856C95.9223 185.368 96.5729 185.624 97.3623 185.624H100.05V182.872ZM140.957 191.512C141.171 191.512 141.277 191.619 141.277 191.832V194.68C141.277 194.893 141.171 195 140.957 195H139.517C137.853 195 136.552 194.339 135.613 193.016C135.059 193.635 134.387 194.125 133.597 194.488C132.829 194.829 132.008 195 131.133 195H120.221C118.877 195 117.629 194.669 116.477 194.008C115.347 193.325 114.44 192.419 113.757 191.288C113.096 190.136 112.765 188.888 112.765 187.544V184.12H116.061V187.384C116.061 188.131 116.243 188.824 116.605 189.464C116.989 190.083 117.501 190.584 118.141 190.968C118.781 191.331 119.475 191.512 120.221 191.512H131.165C131.933 191.512 132.584 191.245 133.117 190.712C133.672 190.179 133.949 189.507 133.949 188.696C133.949 187.672 133.459 186.861 132.477 186.264L124.957 181.336V178.68L131.197 172.088L133.469 174.232L128.317 179.608L134.557 183.704C135.411 184.259 136.072 184.973 136.541 185.848C137.011 186.701 137.245 187.672 137.245 188.76V189.24C137.245 189.88 137.469 190.424 137.917 190.872C138.365 191.299 138.899 191.512 139.517 191.512H140.957ZM140.969 195C140.755 195 140.649 194.893 140.649 194.68V191.832C140.649 191.619 140.755 191.512 140.969 191.512H143.689C144.329 191.512 144.862 191.288 145.289 190.84C145.737 190.392 145.961 189.848 145.961 189.208V183.128H149.257V189.4C149.257 190.424 149.011 191.363 148.521 192.216C148.03 193.069 147.358 193.752 146.505 194.264C145.651 194.755 144.713 195 143.689 195H140.969ZM141.001 197.944H144.265V201.208H141.001V197.944ZM145.929 197.944H149.161V201.208H145.929V197.944ZM181.992 191.512C182.205 191.512 182.312 191.619 182.312 191.832V194.68C182.312 194.893 182.205 195 181.992 195H180.552C179.421 195 178.493 194.659 177.768 193.976C177.405 195.32 176.776 196.515 175.88 197.56C174.984 198.627 173.907 199.459 172.648 200.056C171.389 200.653 170.035 200.952 168.584 200.952C166.856 200.952 165.256 200.515 163.784 199.64C162.312 198.787 161.139 197.624 160.264 196.152C159.411 194.68 158.984 193.08 158.984 191.352V185.368H162.28V191.16C162.28 192.312 162.557 193.379 163.112 194.36C163.688 195.32 164.456 196.077 165.416 196.632C166.397 197.208 167.453 197.496 168.584 197.496C169.736 197.496 170.792 197.208 171.752 196.632C172.733 196.077 173.501 195.32 174.056 194.36C174.632 193.379 174.92 192.312 174.92 191.16V173.72H178.12V173.752H178.248V189.24C178.248 189.88 178.472 190.424 178.92 190.872C179.368 191.299 179.912 191.512 180.552 191.512H181.992ZM186.192 172.984H189.456V176.216H186.192V172.984ZM183.728 177.912H186.992V181.144H183.728V177.912ZM188.656 177.912H191.92V181.144H188.656V177.912ZM182 195C181.787 195 181.68 194.893 181.68 194.68V191.832C181.68 191.619 181.787 191.512 182 191.512H183.92C184.539 191.512 185.072 191.299 185.52 190.872C185.968 190.424 186.192 189.88 186.192 189.24V184.088H189.488V189.24C189.488 189.88 189.712 190.424 190.16 190.872C190.608 191.299 191.141 191.512 191.76 191.512H193.712C193.925 191.512 194.032 191.619 194.032 191.832V194.68C194.032 194.893 193.925 195 193.712 195H191.76C190.907 195 190.139 194.808 189.456 194.424C188.773 194.019 188.24 193.475 187.856 192.792C187.451 193.475 186.907 194.019 186.224 194.424C185.541 194.808 184.773 195 183.92 195H182ZM204.119 182.328C205.313 182.328 206.401 182.605 207.383 183.16C208.385 183.693 209.175 184.44 209.751 185.4C210.348 186.36 210.647 187.416 210.647 188.568C210.647 189.741 210.348 190.829 209.751 191.832C209.175 192.813 208.385 193.603 207.383 194.2C206.401 194.776 205.313 195.064 204.119 195.064C203.201 195.064 202.348 194.883 201.559 194.52C200.769 194.157 200.087 193.656 199.511 193.016C199.084 193.635 198.54 194.125 197.879 194.488C197.217 194.829 196.46 195 195.607 195H193.719C193.505 195 193.399 194.893 193.399 194.68V191.832C193.399 191.619 193.505 191.512 193.719 191.512H195.607C196.225 191.512 196.759 191.299 197.207 190.872C197.655 190.424 197.879 189.88 197.879 189.24V185.624H195.959V182.328H204.119ZM204.119 191.576C204.972 191.576 205.687 191.288 206.263 190.712C206.86 190.136 207.159 189.421 207.159 188.568C207.159 187.736 206.86 187.043 206.263 186.488C205.687 185.912 204.972 185.624 204.119 185.624H201.143V188.568C201.143 189.421 201.431 190.136 202.007 190.712C202.583 191.288 203.287 191.576 204.119 191.576Z" fill="white"/>
<defs>
<clipPath id="clip0_114_321">
<rect width="105" height="139" fill="white" transform="translate(127)"/>
</clipPath>
</defs>
</svg>
