<svg width="320" height="112" viewBox="0 0 320 112" fill="none" xmlns="http://www.w3.org/2000/svg">
<g filter="url(#filter0_d_282_417)">
<path d="M4 0H316L259.898 98.9328C258.122 102.065 254.799 104 251.199 104H69.706C66.1303 104 62.8267 102.091 61.0415 98.9927L4 0Z" fill="url(#paint0_linear_282_417)"/>
</g>
<path d="M115.616 40.68V43.24H113.036V40.68H115.616ZM122.656 46.98C122.789 46.98 122.856 47.0467 122.856 47.18V49.8C122.856 49.9333 122.789 50 122.656 50H121.796C121.182 50 120.676 49.8533 120.276 49.56C119.782 50.7467 119.002 51.7 117.936 52.42C116.882 53.1533 115.696 53.52 114.376 53.52C113.216 53.52 112.142 53.2267 111.156 52.64C110.169 52.0667 109.382 51.2867 108.796 50.3C108.222 49.3133 107.936 48.24 107.936 47.08V43.34H110.816V46.92C110.816 47.56 110.976 48.1533 111.296 48.7C111.616 49.2467 112.049 49.68 112.596 50C113.142 50.32 113.736 50.48 114.376 50.48C115.029 50.48 115.629 50.32 116.176 50C116.736 49.68 117.176 49.2467 117.496 48.7C117.816 48.1533 117.976 47.56 117.976 46.92V42.54H120.876V46.04C120.876 46.3067 120.962 46.5333 121.136 46.72C121.322 46.8933 121.542 46.98 121.796 46.98H122.656ZM122.46 47.18C122.46 47.0467 122.527 46.98 122.66 46.98H123.96C124.227 46.98 124.447 46.8933 124.62 46.72C124.793 46.5333 124.88 46.3067 124.88 46.04V42.54H127.76V46.04C127.76 46.3067 127.847 46.5333 128.02 46.72C128.193 46.8933 128.413 46.98 128.68 46.98H129.98C130.113 46.98 130.18 47.0467 130.18 47.18V49.8C130.18 49.9333 130.113 50 129.98 50H128.68C127.693 50 126.907 49.6733 126.32 49.02C125.707 49.6733 124.92 50 123.96 50H122.66C122.527 50 122.46 49.9333 122.46 49.8V47.18ZM123.22 51.72H125.78V54.28H123.22V51.72ZM126.82 51.72H129.4V54.28H126.82V51.72ZM142.524 46.98C142.658 46.98 142.724 47.0467 142.724 47.18V49.8C142.724 49.9333 142.658 50 142.524 50H141.684C140.684 50 139.891 49.64 139.304 48.92C138.904 49.28 138.451 49.56 137.944 49.76C137.451 49.9467 136.931 50.04 136.384 50.04C135.851 50.04 135.351 49.9467 134.884 49.76C134.418 49.5733 133.998 49.3133 133.624 48.98C133.051 49.66 132.278 50 131.304 50H129.984C129.851 50 129.784 49.9333 129.784 49.8V47.18C129.784 47.0467 129.851 46.98 129.984 46.98H131.304C131.558 46.98 131.771 46.8933 131.944 46.72C132.131 46.5333 132.224 46.3067 132.224 46.04V44.36H130.984V41.5H136.384C137.184 41.5 137.918 41.68 138.584 42.04C139.251 42.4 139.778 42.9 140.164 43.54C140.564 44.1667 140.764 44.8733 140.764 45.66V46.04C140.764 46.3067 140.851 46.5333 141.024 46.72C141.198 46.8933 141.418 46.98 141.684 46.98H142.524ZM136.384 47.02C136.771 47.02 137.091 46.8933 137.344 46.64C137.598 46.3733 137.724 46.0467 137.724 45.66C137.724 45.2867 137.598 44.98 137.344 44.74C137.091 44.4867 136.771 44.36 136.384 44.36H135.064V45.66C135.064 46.0467 135.184 46.3733 135.424 46.64C135.678 46.8933 135.998 47.02 136.384 47.02ZM142.323 47.18C142.323 47.0467 142.39 46.98 142.523 46.98H143.823C144.09 46.98 144.31 46.8933 144.483 46.72C144.657 46.5333 144.743 46.3067 144.743 46.04V42.54H147.623V46.04C147.623 46.3067 147.71 46.5333 147.883 46.72C148.057 46.8933 148.277 46.98 148.543 46.98H149.843C149.977 46.98 150.043 47.0467 150.043 47.18V49.8C150.043 49.9333 149.977 50 149.843 50H148.543C147.557 50 146.77 49.6733 146.183 49.02C145.57 49.6733 144.783 50 143.823 50H142.523C142.39 50 142.323 49.9333 142.323 49.8V47.18ZM143.083 51.72H145.643V54.28H143.083V51.72ZM146.683 51.72H149.263V54.28H146.683V51.72ZM150.148 37.62L153.668 33.9L155.048 35.3L151.528 39.02L150.148 37.62ZM149.848 50C149.714 50 149.648 49.9333 149.648 49.8V47.18C149.648 47.0467 149.714 46.98 149.848 46.98H156.208C156.568 46.98 156.874 46.86 157.128 46.62C157.381 46.38 157.508 46.06 157.508 45.66C157.508 45.18 157.281 44.8 156.828 44.52L152.288 41.54V39.36L156.288 35.12L158.248 36.98L155.288 40.08L158.608 42.26C159.168 42.62 159.601 43.1067 159.908 43.72C160.228 44.32 160.388 44.9867 160.388 45.72C160.388 46.4933 160.194 47.2067 159.808 47.86C159.434 48.5133 158.928 49.0333 158.288 49.42C157.648 49.8067 156.941 50 156.168 50H149.848Z" fill="white"/>
<path d="M116.512 59.188V61.084C116.512 61.508 116.412 61.9 116.212 62.26C116.02 62.62 115.752 62.904 115.408 63.112C115.064 63.32 114.68 63.424 114.256 63.424C113.784 63.424 113.372 63.292 113.02 63.028V63.076V67H112.024V63.004V62.524C112.024 61.812 112.004 61.196 111.964 60.676C111.932 60.156 111.856 59.68 111.736 59.248L112.624 59.068C112.776 59.452 112.888 60.124 112.96 61.084V61.132V61.204C112.992 61.532 113.128 61.812 113.368 62.044C113.616 62.268 113.912 62.38 114.256 62.38C114.616 62.38 114.92 62.256 115.168 62.008C115.416 61.752 115.54 61.444 115.54 61.084V59.188H116.512ZM119.672 67C119.288 67 118.932 66.908 118.604 66.724C118.284 66.532 118.028 66.276 117.836 65.956C117.652 65.628 117.56 65.272 117.56 64.888C117.56 64.504 117.652 64.152 117.836 63.832C118.028 63.512 118.284 63.26 118.604 63.076C118.932 62.884 119.288 62.788 119.672 62.788C120.056 62.788 120.408 62.884 120.728 63.076C121.048 63.26 121.3 63.512 121.484 63.832C121.676 64.152 121.772 64.504 121.772 64.888C121.772 65.272 121.676 65.628 121.484 65.956C121.3 66.276 121.048 66.532 120.728 66.724C120.408 66.908 120.056 67 119.672 67ZM119.672 66.016C119.984 66.016 120.248 65.908 120.464 65.692C120.68 65.468 120.788 65.2 120.788 64.888C120.788 64.576 120.68 64.312 120.464 64.096C120.248 63.88 119.984 63.772 119.672 63.772C119.36 63.772 119.092 63.88 118.868 64.096C118.652 64.312 118.544 64.576 118.544 64.888C118.544 65.2 118.652 65.468 118.868 65.692C119.092 65.908 119.36 66.016 119.672 66.016ZM127.704 59.188V61.084C127.704 61.508 127.604 61.9 127.404 62.26C127.212 62.62 126.944 62.904 126.6 63.112C126.256 63.32 125.872 63.424 125.448 63.424C124.976 63.424 124.564 63.292 124.212 63.028V63.076V67H123.216V63.004V62.524C123.216 61.812 123.196 61.196 123.156 60.676C123.124 60.156 123.048 59.68 122.928 59.248L123.816 59.068C123.968 59.452 124.08 60.124 124.152 61.084V61.132V61.204C124.184 61.532 124.32 61.812 124.56 62.044C124.808 62.268 125.104 62.38 125.448 62.38C125.808 62.38 126.112 62.256 126.36 62.008C126.608 61.752 126.732 61.444 126.732 61.084V59.188H127.704ZM133.528 59.188V61.084C133.528 61.508 133.428 61.9 133.228 62.26C133.036 62.62 132.768 62.904 132.424 63.112C132.08 63.32 131.696 63.424 131.272 63.424C130.8 63.424 130.388 63.292 130.036 63.028V63.076V67H129.04V63.004V62.524C129.04 61.812 129.02 61.196 128.98 60.676C128.948 60.156 128.872 59.68 128.752 59.248L129.64 59.068C129.792 59.452 129.904 60.124 129.976 61.084V61.132V61.204C130.008 61.532 130.144 61.812 130.384 62.044C130.632 62.268 130.928 62.38 131.272 62.38C131.632 62.38 131.936 62.256 132.184 62.008C132.432 61.752 132.556 61.444 132.556 61.084V59.188H133.528Z" fill="white"/>
<g clip-path="url(#clip0_282_417)">
<path d="M212.46 20.0051C212.872 20.0051 213.284 19.9936 213.695 20.0051C214.804 20.0395 215.318 20.8181 214.79 21.7891C214.374 22.5084 213.895 23.1906 213.358 23.828C210.162 27.8141 206.989 31.8218 203.728 35.7569C200.766 39.325 197.744 42.8506 194.663 46.3338C193.171 48.0171 191.366 49.3424 189.054 49.8356C186.321 50.4179 183.918 49.6725 181.698 48.1344C180.355 47.2041 179.47 45.8826 178.597 44.5739C175.734 40.2761 172.895 35.9608 170.081 31.6281C168.849 29.7307 167.707 27.7784 166.525 25.8491C166.459 25.7408 166.395 25.6274 166.34 25.514C165.6 24.0243 166.046 23.2202 167.721 23.1017C173.662 22.6642 179.605 22.2339 185.55 21.8108C190.801 21.4285 196.051 21.0539 201.297 20.7009C205.015 20.446 208.736 20.2447 212.456 20.0178L212.46 20.0051Z" fill="white"/>
<path d="M206.174 84C205.133 83.8433 203.889 83.6827 202.661 83.461C200.058 82.992 197.471 82.495 194.877 82.0006C191.754 81.4059 188.63 80.8044 185.507 80.1962C181.853 79.4842 178.2 78.7621 174.548 78.0298C173.993 77.9338 173.448 77.7906 172.919 77.6017C171.599 77.0919 171.138 76.0559 171.691 74.7701C172.423 73.0702 173.202 71.3881 173.985 69.7073C175.277 66.928 176.52 64.1219 177.917 61.3924C178.845 59.5612 179.886 57.7555 181.108 56.0963C183.416 52.9615 187.549 52.7092 190.31 55.4833C191.314 56.4926 192.178 57.6599 192.974 58.8386C194.816 61.5631 196.575 64.3386 198.369 67.0936C201.291 71.5869 204.212 76.0771 207.131 80.5644C207.397 80.977 207.634 81.4065 207.84 81.8502C208.415 83.0863 207.779 84.0178 206.174 84Z" fill="white"/>
</g>
<defs>
<filter id="filter0_d_282_417" x="0" y="0" width="320" height="112" filterUnits="userSpaceOnUse" color-interpolation-filters="sRGB">
<feFlood flood-opacity="0" result="BackgroundImageFix"/>
<feColorMatrix in="SourceAlpha" type="matrix" values="0 0 0 0 0 0 0 0 0 0 0 0 0 0 0 0 0 0 127 0" result="hardAlpha"/>
<feOffset dy="4"/>
<feGaussianBlur stdDeviation="2"/>
<feComposite in2="hardAlpha" operator="out"/>
<feColorMatrix type="matrix" values="0 0 0 0 0 0 0 0 0 0 0 0 0 0 0 0 0 0 0.25 0"/>
<feBlend mode="normal" in2="BackgroundImageFix" result="effect1_dropShadow_282_417"/>
<feBlend mode="normal" in="SourceGraphic" in2="effect1_dropShadow_282_417" result="shape"/>
</filter>
<linearGradient id="paint0_linear_282_417" x1="160" y1="0" x2="160" y2="104" gradientUnits="userSpaceOnUse">
<stop stop-color="#D63F26"/>
<stop offset="1" stop-color="#A5262D"/>
</linearGradient>
<clipPath id="clip0_282_417">
<rect width="49" height="64" fill="white" transform="translate(166 20)"/>
</clipPath>
</defs>
</svg>
